<svg xmlns="http://www.w3.org/2000/svg" width="384" height="64" viewBox="0 0 384 64"><g transform="translate(0 0)" opacity="1"><path d="M32 32 L44.33 32.00" stroke="#ffe7a3" stroke-width="5.0"/><path d="M32 32 L40.72 40.72" stroke="#ffe7a3" stroke-width="5.0"/><path d="M32 32 L32.00 44.33" stroke="#ffe7a3" stroke-width="5.0"/><path d="M32 32 L23.28 40.72" stroke="#ffe7a3" stroke-width="5.0"/><path d="M32 32 L19.67 32.00" stroke="#ffe7a3" stroke-width="5.0"/><path d="M32 32 L23.28 23.28" stroke="#ffe7a3" stroke-width="5.0"/><path d="M32 32 L32.00 19.67" stroke="#ffe7a3" stroke-width="5.0"/><path d="M32 32 L40.72 23.28" stroke="#ffe7a3" stroke-width="5.0"/><circle cx="32" cy="32" r="6" fill="white"/></g><g transform="translate(64 0)" opacity="1"><path d="M32 32 L47.67 32.00" stroke="#ffe7a3" stroke-width="4.5"/><path d="M32 32 L43.08 43.08" stroke="#ffe7a3" stroke-width="4.5"/><path d="M32 32 L32.00 47.67" stroke="#ffe7a3" stroke-width="4.5"/><path d="M32 32 L20.92 43.08" stroke="#ffe7a3" stroke-width="4.5"/><path d="M32 32 L16.33 32.00" stroke="#ffe7a3" stroke-width="4.5"/><path d="M32 32 L20.92 20.92" stroke="#ffe7a3" stroke-width="4.5"/><path d="M32 32 L32.00 16.33" stroke="#ffe7a3" stroke-width="4.5"/><path d="M32 32 L43.08 20.92" stroke="#ffe7a3" stroke-width="4.5"/><circle cx="32" cy="32" r="6" fill="white"/></g><g transform="translate(128 0)" opacity="1"><path d="M32 32 L51.00 32.00" stroke="#ffe7a3" stroke-width="4.0"/><path d="M32 32 L45.44 45.44" stroke="#ffe7a3" stroke-width="4.0"/><path d="M32 32 L32.00 51.00" stroke="#ffe7a3" stroke-width="4.0"/><path d="M32 32 L18.56 45.44" stroke="#ffe7a3" stroke-width="4.0"/><path d="M32 32 L13.00 32.00" stroke="#ffe7a3" stroke-width="4.0"/><path d="M32 32 L18.56 18.56" stroke="#ffe7a3" stroke-width="4.0"/><path d="M32 32 L32.00 13.00" stroke="#ffe7a3" stroke-width="4.0"/><path d="M32 32 L45.44 18.56" stroke="#ffe7a3" stroke-width="4.0"/><circle cx="32" cy="32" r="6" fill="white"/></g><g transform="translate(192 0)" opacity="0.75"><path d="M32 32 L54.33 32.00" stroke="#ffe7a3" stroke-width="3.5"/><path d="M32 32 L47.79 47.79" stroke="#ffe7a3" stroke-width="3.5"/><path d="M32 32 L32.00 54.33" stroke="#ffe7a3" stroke-width="3.5"/><path d="M32 32 L16.21 47.79" stroke="#ffe7a3" stroke-width="3.5"/><path d="M32 32 L9.67 32.00" stroke="#ffe7a3" stroke-width="3.5"/><path d="M32 32 L16.21 16.21" stroke="#ffe7a3" stroke-width="3.5"/><path d="M32 32 L32.00 9.67" stroke="#ffe7a3" stroke-width="3.5"/><path d="M32 32 L47.79 16.21" stroke="#ffe7a3" stroke-width="3.5"/><circle cx="32" cy="32" r="6" fill="white"/></g><g transform="translate(256 0)" opacity="0.5"><path d="M32 32 L57.67 32.00" stroke="#ffe7a3" stroke-width="3.0"/><path d="M32 32 L50.15 50.15" stroke="#ffe7a3" stroke-width="3.0"/><path d="M32 32 L32.00 57.67" stroke="#ffe7a3" stroke-width="3.0"/><path d="M32 32 L13.85 50.15" stroke="#ffe7a3" stroke-width="3.0"/><path d="M32 32 L6.33 32.00" stroke="#ffe7a3" stroke-width="3.0"/><path d="M32 32 L13.85 13.85" stroke="#ffe7a3" stroke-width="3.0"/><path d="M32 32 L32.00 6.33" stroke="#ffe7a3" stroke-width="3.0"/><path d="M32 32 L50.15 13.85" stroke="#ffe7a3" stroke-width="3.0"/><circle cx="32" cy="32" r="6" fill="white"/></g><g transform="translate(320 0)" opacity="0.25"><path d="M32 32 L61.00 32.00" stroke="#ffe7a3" stroke-width="2.5"/><path d="M32 32 L52.51 52.51" stroke="#ffe7a3" stroke-width="2.5"/><path d="M32 32 L32.00 61.00" stroke="#ffe7a3" stroke-width="2.5"/><path d="M32 32 L11.49 52.51" stroke="#ffe7a3" stroke-width="2.5"/><path d="M32 32 L3.00 32.00" stroke="#ffe7a3" stroke-width="2.5"/><path d="M32 32 L11.49 11.49" stroke="#ffe7a3" stroke-width="2.5"/><path d="M32 32 L32.00 3.00" stroke="#ffe7a3" stroke-width="2.5"/><path d="M32 32 L52.51 11.49" stroke="#ffe7a3" stroke-width="2.5"/><circle cx="32" cy="32" r="6" fill="white"/></g></svg>